<?xml version="1.0" encoding="UTF-8"?>
<svg id="Layer_1" data-name="Layer 1" xmlns="http://www.w3.org/2000/svg" viewBox="0 0 645.23 292.68">
  <defs>
    <style>
      .cls-1 {
        fill: #fff;
      }
    </style>
  </defs>
  <path class="cls-1" d="M247.42,201.52c-3.15-3.23-4.68-8.31-4.68-15.33v-20.17c0-9.52,.16-20.41,.56-32.83,.4-12.42,.56-24.93,.56-37.43v-3.39c0-6.86,.16-12.42,.4-16.78,.32-4.36,.65-7.99,1.05-10.81s.89-5.08,1.45-6.7,1.13-3.07,1.77-4.44c.16-.56,.65-1.61,1.29-3.15s1.45-3.07,2.34-4.68c.89-1.61,1.69-3.07,2.5-4.44,.81-1.29,1.29-2.26,1.45-2.82v-1.13c0-1.69-2.02-3.23-6.13-4.52s-8.55-2.66-13.31-3.95-9.2-2.74-13.31-4.28-6.13-3.39-6.13-5.73c.4-1.13,1.29-2.74,2.74-4.68,1.45-2.02,1.05-2.98-1.29-2.98-.16,0-.32,.08-.32,.32l-16.62,16.22c-.4,.4-1.53,1.29-3.39,2.74s-2.98,2.34-3.39,2.74l-.89,.89c-3.87,3.23-6.94,5.73-9.2,7.42-2.26,1.69-4.68,3.63-7.42,5.73-.16,.16-.56,.4-1.13,.56s-.97,.4-1.13,.56v-5.41c0-.4,.16-1.29,.56-2.74s.56-2.34,.56-2.74v-4.28c0-1.13-2.1-2.34-6.29-3.71-4.19-1.29-8.79-2.66-13.71-3.95s-9.52-2.58-13.71-3.71-6.29-2.1-6.29-2.82v-1.13c0-.97,.24-1.94,.73-2.98,.48-1.05,.73-2.34,.73-3.87-.56,0-1.45,.48-2.5,1.45-1.05,.97-2.1,2.1-3.07,3.39s-1.94,2.58-2.9,3.87c-.97,1.21-1.53,2.1-1.77,2.74-7.18,7.02-12.67,12.5-16.46,16.54-3.79,3.95-6.7,7.1-8.63,9.36-1.94,2.26-3.31,3.95-4.11,5.16-.81,1.13-1.77,2.26-2.9,3.39l-5.57,5.41h-1.13l-27.75-27.03c-.97-.97-2.9-2.58-5.81-5-2.9-2.34-5.49-4.28-7.58-5.81v-3.15l6.7-6.53v-3.39c0-.16-.48-.08-1.45,.4s-1.53,.73-1.77,.73l-24.52,23.88c-.16,.4-.56,.97-1.05,1.69s-.81,1.21-1.05,1.45l-1.13,1.13c-5.49,5.49-9.6,10.73-12.58,15.65-2.9,4.92-6.13,11.29-9.6,19.04-.81,.73-1.13,1.77-1.13,3.15v5.41c.16-.4,1.05-1.69,2.5-3.87,1.45-2.18,2.98-4.44,4.52-6.7s2.18-3.15,1.77-2.58h1.13c1.53,0,3.39,.73,5.57,2.1,2.18,1.45,4.36,3.15,6.7,5.16,2.34,2.02,4.6,4.03,6.7,6.13,2.18,2.1,3.95,3.79,5.57,5.08,12.42,11.54,21.22,20.65,26.38,27.19s7.74,10.08,7.74,10.65c4.28,5.89,6.7,10.41,7.18,13.63,.48,3.23,.73,6.94,.73,11.13v7.66c-.4,1.13-1.53,3.07-3.47,5.81-1.94,2.74-4.36,5.49-7.26,8.23s-6.29,5.24-10.25,7.42c-3.87,2.18-7.99,3.31-12.26,3.31h-12.26c-.4,0-1.13,.16-2.34,.4-1.13,.32-1.86,.48-2.02,.73L3.31,208.62v.89l1.13,.89h1.13c5.65,0,10-.16,12.99-.56s5.97-.4,8.87-.16c2.9,.32,6.29,1.21,10.25,2.74,3.87,1.53,9.44,4.11,16.62,7.66,1.53,.73,3.95,2.1,7.26,3.95,3.31,1.94,6.62,4.11,9.92,6.53,3.31,2.5,6.29,5,8.87,7.5,2.66,2.58,3.95,4.92,3.95,6.94,0,.97-.65,1.77-1.94,2.58-1.29,.73-2.18,1.69-2.74,2.82v2.02c0,.16,.4,.56,1.13,1.13,6.05-3.63,11.7-7.74,16.94-12.5s9.92-9.52,14.04-14.36c4.11-4.84,7.5-9.52,10.25-14.12,2.74-4.52,4.6-8.55,5.57-11.94v-2.02c-1.37,.16-2.9,1.69-4.68,4.52s-2.82,4.92-3.23,6.29l-4.11,4.03c-.97,0-2.58-.65-4.84-2.02-2.26-1.29-4.52-2.82-6.86-4.44s-4.44-3.15-6.29-4.68c-1.86-1.53-2.9-2.58-3.07-3.15-4.84-4.76-9.84-7.99-14.92-9.68s-8.31-2.74-9.6-3.15l-1.13-2.26v-1.13c0-.16,.56-.89,1.61-2.1s1.69-1.94,1.94-2.1l5.57-5.41c1.77-1.69,3.87-3.47,6.45-5.41,2.5-1.86,4.92-3.79,7.26-5.73,2.34-1.86,4.44-3.87,6.45-5.81,1.94-2.02,3.31-3.95,4.11-5.81,1.37-3.63,2.82-7.42,4.36-11.54s2.34-7.74,2.34-10.97v-14.2c0-2.82-.08-5.24-.32-7.26-.16-2.02-.65-4.19-1.29-6.7-.65-2.5-1.61-5.32-2.74-8.71-1.13-3.31-2.66-7.66-4.36-12.91-.56-1.53-1.13-3.07-1.61-4.52-.48-1.53-.73-3.07-.73-4.52v-1.86c.16-1.29,.65-2.9,1.45-4.68,.81-1.77,1.61-3.55,2.66-5.24,.97-1.69,2.02-3.15,3.07-4.44,1.05-1.21,2.02-1.86,2.74-1.86h4.68c2.9,0,6.05,.4,9.36,1.29s6.37,1.77,9.2,2.74c2.82,.97,5.16,1.94,7.02,2.82,1.86,.97,2.9,1.53,3.07,1.69v4.52c0,1.94,.08,3.95,.16,6.13,.08,2.18,.16,4.36,.16,6.37v4.28c.4,5.08,.56,9.52,.4,13.23-.08,3.71-.32,7.1-.56,10.25-.32,3.15-.56,6.21-.89,9.28-.32,3.07-.4,6.37-.4,9.92v15.97c0,.4-.16,.97-.4,1.69-.32,.73-.4,1.29-.4,1.69v12.83c0,.56-.08,2.02-.16,4.28-.08,2.26-.24,4.68-.4,7.26s-.32,4.92-.4,7.1-.16,3.55-.16,4.11v16.22c0,4.36-.32,7.74-1.05,10.08-.65,2.34-1.53,4.28-2.5,5.73-.97,1.45-2.02,2.58-3.23,3.55-1.13,.97-2.26,2.1-3.23,3.39v3.15c6.05,6.05,10.49,10.57,13.31,13.39s4.76,4.92,5.81,6.29c1.05,1.29,1.61,2.26,1.77,2.82,.08,.56,.56,1.69,1.29,3.39v1.13c0,.4-.81,1.77-2.34,4.28v1.13c0,.16,.4,.56,1.13,1.13h2.02c3.47-3.07,7.1-6.29,10.81-9.84,3.71-3.47,7.02-6.86,10.08-10.08,2.98-3.23,5.57-6.05,7.58-8.55s3.07-4.19,3.07-5.16c0-2.66-.56-4.92-1.77-6.86-1.13-1.86-2.5-3.55-3.95-5-1.45-1.45-2.74-2.74-3.95-3.87-1.13-1.13-1.77-2.34-1.77-3.71v-19.36c0-6.86,.16-12.1,.56-15.97,.4-3.79,.89-6.62,1.45-8.39s1.21-2.9,1.77-3.39c.56-.48,1.13-.97,1.77-1.53,1.77-1.13,4.03-2.74,6.86-4.68,2.82-2.02,5.81-3.87,8.87-5.73,3.15-1.77,6.13-3.39,9.04-4.84,2.9-1.45,5.32-2.1,7.26-2.1,.4,.56,.56,.97,.56,1.13v26.7c0,10.08-.16,19.6-.4,28.72-.32,9.12-.73,15.49-1.29,19.04-.16,.73-.65,2.42-1.45,5s-1.05,3.63-.89,3.31c0,.56,.65,1.37,1.94,2.42,1.29,1.05,2.74,2.26,4.52,3.55,1.77,1.29,3.47,2.66,5.24,3.95,1.77,1.29,3.15,2.5,4.11,3.39l8.79,8.55c.4,.16,.65,.73,.89,1.69,.16,.97,.32,1.53,.32,1.69v1.13c0,1.13-.16,2.26-.56,3.31s-.56,2.1-.56,3.31v.89c0,.73,.4,1.13,1.13,1.13,2.5-2.5,5.08-5.57,7.74-9.28s4.92-7.18,7.02-10.57c2.02-3.31,3.63-6.13,4.84-8.39,1.13-2.26,1.61-3.31,1.45-3.15,.4-.97,1.21-2.58,2.5-4.84s1.94-3.63,1.94-3.95v-2.02c0-.97-1.13-2.5-3.39-4.68-2.5-1.86-4.36-3.95-5.73-5.81Zm-165.14-54.13c0,3.79-.16,5.41-.56,4.84s-.81-2.1-1.29-4.68-1.05-5.41-1.77-8.55c-.65-3.15-1.29-5.32-1.94-6.7-1.53-3.39-2.9-6.13-3.95-8.23-1.05-2.1-2.26-4.11-3.47-5.97-1.29-1.86-2.74-3.95-4.52-6.29-1.77-2.26-4.11-5.24-7.02-8.79l-.89-.89c-2.18-2.26-4.6-5.24-7.42-8.95s-5.24-6.13-7.18-7.26c-.97-.97-2.74-2.66-5.24-5.08-2.5-2.5-5.24-5.16-7.99-7.99-2.82-2.82-5.49-5.49-7.99-7.99-2.5-2.5-4.28-4.19-5.24-5.16v-3.15l1.13-1.13h2.34c2.5,0,6.37,2.18,11.54,6.53,5.16,4.36,10.41,9.36,15.73,15.09,5.32,5.73,10.25,11.37,14.76,17.1,4.44,5.73,7.42,9.76,8.79,12.26,2.18,4.52,4.03,7.99,5.73,10.41,1.61,2.34,3.07,6.13,4.19,11.21,.56,.56,1.13,2.18,1.61,4.84s.73,4.28,.73,4.84v9.68h-.08Zm126.49-20.01c-.89,1.61-2.42,2.9-4.52,3.87-6.21,3.63-11.21,6.53-15,8.71-3.79,2.18-7.42,4.19-10.81,5.97s-5.49,2.74-6.29,2.74c-.16-.16-.32-.65-.32-1.45,0-2.66,1.77-5.57,5.24-8.71s7.5-6.05,11.94-8.79c4.44-2.74,8.79-5.08,12.99-6.94,4.19-1.86,6.86-2.82,7.99-2.82,.08,3.31-.32,5.81-1.21,7.42Zm10.81-57.04c-1.69,2.26-3.07,4.52-4.19,6.86-2.34,4.76-3.87,9.92-4.52,15.49-.65,5.57-1.05,11.21-1.05,16.94l-1.13,1.13c-.4,.4-2.42,1.86-5.97,4.44-3.63,2.58-7.58,5.24-11.86,8.15-4.28,2.82-8.23,5.49-11.78,7.83-3.63,2.34-5.57,3.55-5.97,3.55v-60.58c0-9.28,1.45-15.97,4.36-20.09,2.9-4.11,6.29-6.13,10.25-6.13,.4,0,2.34,.73,5.81,2.26s7.42,3.31,11.7,5.24c4.28,2.02,8.15,3.87,11.7,5.73,3.47,1.77,5.24,3.07,5.24,3.87-.08,1.21-.97,2.98-2.58,5.32Z"/>
  <path class="cls-1" d="M359.16,209.67c-.56-.16-.97-.32-1.13-.32-1.13,0-2.26,.89-3.39,2.74-1.05,1.77-1.77,3.47-2.18,5h-5.57c-2.18,0-4.6-.4-7.42-1.29s-5.49-1.77-7.99-2.74c-2.5-.97-4.84-1.86-6.86-2.82s-3.47-1.53-4.19-1.69l-1.13-1.13c-.16-.4-.4-.97-.56-1.69-.16-.73-.4-1.21-.56-1.45v-6.53c0-.73,.08-2.58,.16-5.41,.08-2.82,.24-5.89,.4-9.12s.32-6.29,.4-9.12,.16-4.68,.16-5.41v-19.36c0-1.86,.08-5.41,.16-10.57,.08-5.08,.16-10.33,.32-15.65,.08-5.32,.32-10,.56-14.12,.32-4.11,.73-6.13,1.29-6.13h1.13c2.34,1.29,4.6,3.07,6.86,5.16s4.19,4.11,5.97,6.13,3.71,4.36,5.81,6.94c1.13,2.1,1.86,4.11,2.02,5.97,.16,1.94,.81,2.82,1.77,2.82,.4,.16,1.05-.65,1.94-2.42,.89-1.77,1.77-3.79,2.74-5.97,.97-2.18,1.94-4.28,2.74-6.37,.89-2.1,1.53-3.31,1.94-3.71,3.15-5.08,4.68-8.31,4.68-9.52v-4.68c0-1.53-.08-2.66-.32-3.39-.16-.73-.89-1.69-2.02-2.82l-5.57-5.41c-.16-.16-.73-.56-1.61-1.13-.89-.56-1.45-.89-1.61-.89l-1.13-1.13c-3.47-3.39-6.37-5.49-8.63-6.13-2.26-.65-3.07-1.45-2.5-2.42v-2.26c0-.73,.4-1.61,1.29-2.58s1.29-2.26,1.29-3.95h-1.45c-1.13,0-2.98,.73-5.41,2.26s-5,3.31-7.74,5.24c-2.74,2.02-5.24,3.95-7.42,5.81-2.26,1.94-3.87,3.23-4.84,3.95-4.84,2.5-8.31,4.36-10.25,5.57s-3.31,2.1-4.11,2.74c-.81,.56-1.29,1.13-1.61,1.53-.32,.48-1.29,1.13-3.07,1.86-1.37,1.29-2.66,2.42-3.79,3.31s-2.42,1.94-3.79,3.31l-1.13,1.13c-.4,.16,.24,.73,1.94,1.69,1.61,.97,2.9,1.45,3.63,1.45l-.56,31.3c0,1.53-.08,3.95-.16,7.26-.08,3.31-.16,6.94-.16,10.97s-.08,8.15-.16,12.34c-.08,4.28-.16,8.31-.16,12.1v10.25c0,.56,.08,2.18,.16,4.84,.08,2.66,.24,5.49,.4,8.55s.32,5.89,.4,8.55,.16,4.28,.16,4.84v1.13c0,2.66-.56,4.76-1.61,6.37s-2.02,3.47-2.74,5.57v.89c0,.56,1.94,1.69,5.81,3.39,3.87,1.69,8.15,3.39,12.83,5.16,4.68,1.69,10.97,3.87,18.96,6.53l-3.47,6.53c0,.73,.4,1.13,1.13,1.13h2.34l5.24-7.66c0,.97,1.53,.08,4.68-2.58,3.15-2.66,6.53-5.97,10.33-9.92,3.79-3.95,7.42-7.99,10.97-12.1,3.47-4.11,5.57-6.94,6.13-8.71v-1.13c.16-.4-.16-.73-.73-.89Z"/>
  <path class="cls-1" d="M489.77,86.16c-2.82-.73-5.32-1.61-7.42-2.58-2.18-.97-3.23-2.02-3.23-3.15,0-1.53,.48-3.07,1.45-4.52,.97-1.53,1.45-3.23,1.45-5.16-.16,0-.48,.08-.89,.16-5.24,1.29-11.37,7.26-15.89,10.33-6.29,4.19-12.67,8.39-19.6,11.46-1.77,.81-8.55,4.44-10.49,3.39-1.86-1.05-1.13-6.45-1.21-8.23-.16-4.11-.32-8.47-.4-13.07-.08-4.68-.16-9.04-.32-13.07-.08-4.11-.16-6.86-.16-8.39,0-10.81,2.1-19.68,6.29-26.46,4.19-6.86,10.16-10.25,17.91-10.25,1.94,0,4.44,.4,7.58,1.13,3.15,.73,5.4,1.13,7.02,1.13v-1.45c0-.56-1.45-1.45-4.36-2.58-2.9-1.13-4.76-1.69-5.57-1.69h-12.26c-1.13,.4-3.07,1.61-5.73,3.71-2.66,2.1-5.49,4.44-8.47,7.02s-6.05,5.16-9.04,7.66c-2.98,2.58-5.57,4.44-7.74,5.57-2.34,.97-4.92,1.86-7.74,2.74s-5.08,1.77-6.86,2.74c-.56-2.1-2.82-6.05-6.7-11.94l-1.13-.32c.56,1.13,1.13,3.23,1.77,6.29,.56,3.07,1.13,6.29,1.61,9.68s.89,6.78,1.29,10,.81,5.49,1.13,6.86v2.02c0,3.23,.08,6.13,.16,8.71,.08,2.58,.24,5.41,.4,8.39,.16,3.07,.32,6.53,.4,10.41,.32,11.62-.16,22.91-1.05,34.45-.65,8.55,.32,16.86,.16,25.33-.08,4.28-.16,9.04-.16,14.36v19.68c0,1.94-.08,4.03-.32,6.37-.16,2.34-.4,4.68-.73,6.86s-.56,4.11-.73,5.73c-.16,1.61-.4,2.5-.56,2.74-2.18,3.23-3.63,5.24-4.36,6.13-.81,.89-.81,2.42,0,4.68l3.23,3.15c3.31,3.23,5.57,5.49,6.7,6.86,1.13,1.29,1.94,2.34,2.34,3.15,.4,.73,.81,1.61,1.13,2.58,.4,.97,1.45,2.58,3.23,4.84,.4,1.13,.81,1.94,1.13,2.26v2.02c0,.16-1.05,1.53-3.07,4.11-2.02,2.58-3.07,4.44-3.07,5.57h3.79c.81,0,2.34-1.05,4.68-3.15,2.34-2.1,5.08-4.68,8.31-7.83s6.62-6.53,10.25-10.25c3.63-3.71,6.94-7.1,10.08-10.08v-4.28c0-.16-.73-1.21-2.18-3.15-1.45-1.94-3.07-3.95-4.84-6.13-1.77-2.18-3.31-4.11-4.68-5.81-1.37-1.69-1.94-2.5-1.77-2.26v-3.15c0-1.13,.08-4.19,.32-9.12,.16-4.92,.32-10.25,.4-15.81,.16-8.15-.24-16.38,0-24.52,.32-9.36,2.58-18.96,3.87-28.24,.32-2.02,.56-4.11,1.45-5.97,.24-.56,.56-1.05,1.05-1.37,.56-.32,1.29-.32,1.94-.32,4.52,.08,8.79-.73,13.31-1.13,3.95-.4,7.26,1.13,11.13,2.18,3.23,.89,6.05,1.61,8.47,2.26s3.47,.81,3.07,.4c.81,0,1.13,.4,1.13,1.13v.89c-.16,.56-.48,1.86-.89,3.87s-.89,4.11-1.45,6.37-1.13,4.44-1.77,6.53c0,4.84-2.42,10.57-3.15,15.49-1.13,8.39,.65,16.86,.16,25.41-.56,9.84-2.18,19.52-4.03,29.2-1.29,6.53-3.15,12.67-3.95,19.36-.89,7.26-1.29,14.6-2.18,21.86-.48,4.11-2.26,7.99-3.31,12.02-1.37,5.16-2.98,9.28-4.92,12.5s-4.03,5.97-6.29,8.23-4.6,4.36-7.02,6.29c-2.42,1.86-4.92,4.11-7.42,6.53l1.21,1.13h2.34c3.31,0,7.66-2.34,12.99-6.94,5.32-4.68,10.57-9.84,15.65-15.65s9.52-11.29,13.31-16.54,5.73-8.39,5.73-9.52c4.84-4.76,7.58-11.05,8.15-18.8,.56-7.83,.89-15,.89-21.62,0-9.28-.24-20.57-.73-33.88-.48-13.31,11.05-23.23,11.05-37.43v-9.68c.16-4.92,.65-9.2,1.29-12.83,.65-3.63,1.05-8.07,1.05-13.39v-6.29c-.97-.4-2.82-.89-5.57-1.45-2.5-1.05-5.24-1.69-8.07-2.5Z"/>
  <path class="cls-1" d="M598.84,23.56l-2.34-1.13c-.56-3.47-.97-5.73-1.13-6.7v-2.02c0-2.1,.81-4.44,2.5-6.86,1.61-2.42,2.5-4.68,2.5-6.86-.97,0-2.26,.08-3.79,.32-1.53,.16-2.66,.56-3.23,1.13l-20.17,12.18c-.4,.16-1.29,.81-2.66,1.86-1.37,1.05-2.82,2.18-4.36,3.31s-3.63,2.74-6.13,4.68l-5.57,1.13h-3.23c-1.77,0-3.71,.08-5.97,.16s-4.52,.16-6.86,.16h-23.96c-7.99,0-14.28-.16-18.96-.4-2.26-.16-4.44-.4-6.37-.73-.4,3.87-2.18,7.74-5.65,11.21-6.62,6.7-12.99,13.55-19.12,20.65,1.29-.08,2.5-.16,3.71-.16h13.15c1.05,0,2.18,.4,3.23,1.13,2.1,.4,4.03,1.05,5.65,1.94,.24-.16,.48-.48,.73-.65,2.34-1.61,5.81-2.5,10.49-2.5h23.07c.81,0,2.26,.16,4.52,.4,2.26,.32,3.71,.56,4.52,.73l-1.13,1.13c-.48,.48-.97,.97-1.53,1.37,2.18,0,4.19,.32,6.05,.97,3.15-2.02,5.4-3.23,6.62-3.55h2.34c1.77-.16,2.82-.32,3.23-.32s.81,.08,1.29,.16,.81,.16,1.05,.16l.89,2.34c0,.16,.08,1.21,.16,3.07s.16,3.23,.16,4.19c0,5.08-.16,9.68-.56,13.96s-.56,8.95-.56,13.96v7.83c0,3.31-.4,7.26-1.13,11.78-.81,4.6-1.13,8.31-1.13,11.21v2.34c0,4.44-.16,9.68-.56,15.57s-1.29,11.37-2.66,16.46c-.56,2.42-1.05,4.36-1.45,5.97,1.13,1.77,2.34,3.47,3.47,5.24v-2.5c1.94-14.52,3.47-25.17,4.68-31.87,1.13-6.7,2.02-11.54,2.66-14.52,.56-2.98,.97-5.24,1.13-6.7,.16-1.45,.32-4.28,.32-8.55,0-1.37,.08-3.55,.16-6.7,.08-3.07,.16-6.53,.16-10.33s.08-7.74,.16-11.78,.16-7.74,.16-11.05v-9.92h4.11v47.19q-.08,0-.16-.08c.08,.16,.16,.24,.16,.4v60.58l-1.13,14.28c0,.81-.4,1.13-1.13,1.13h-2.34c-.56,0-1.29-.24-1.94-.48,1.94,2.5,3.87,4.92,5.89,7.34,.24-.24,.48-.56,.81-.81,0,.81,0,1.53-.08,2.34-.16,4.68-.56,9.92-1.13,15.73v1.13c0,4.68-.16,8.07-.56,10.16s-.89,3.71-1.61,4.68c-.65,.97-1.45,1.69-2.18,2.18-.81,.48-1.45,1.37-2.02,2.74-.97,2.74-.08,5.08,2.74,7.02s6.05,3.71,9.76,5.41c3.71,1.61,7.18,3.23,10.33,4.68,3.23,1.45,4.84,3.07,4.84,4.76,0,.4-.4,1.29-1.13,2.58-.81,1.37-1.13,2.34-1.13,2.9v1.13c0,.16,.32,.56,.89,1.13h2.34c8.15-8.55,14.12-15.97,17.83-22.43,3.71-6.37,5.57-9.44,5.57-9.04l-.32-.56c0-.16-.16-.56-.4-1.05-.32-.48-.4-.81-.4-1.05l-2.34-2.34c-2.18-2.1-4.36-3.79-6.53-4.92-2.26-1.13-3.39-3.47-3.39-7.02v-59.46c.65-1.69,1.45-3.39,2.42-5-.08-1.61-.16-3.31-.16-5.08-.08-3.39-.16-6.7-.16-9.92v-7.1c0,.4,.08-1.53,.16-5.65,.08-4.19,.24-9.28,.4-15.41,.16-6.13,.32-12.58,.4-19.36,.08-6.78,.16-12.58,.16-17.43v-1.13c0-1.13,.89-1.86,2.66-2.02,1.77-.16,3.15-.32,4.11-.32,4.28,.16,23.8,.73,27.1,1.61s4.92,4.19,4.92,10c0,1.77,.48,3.07,1.45,4.03h1.13c0-15.49,1.86-28.8,5.57-39.85,.4-2.5,.89-4.84,1.45-7.02,.56-2.1,.89-3.47,.89-4.03h-46.38s0,.48,0,.48Z"/>
</svg>